<svg width="16" height="17" viewBox="0 0 16 17" fill="none" xmlns="http://www.w3.org/2000/svg">
<g clip-path="url(#clip0_56101_475)">
<path d="M15.7 15.0778L12.6 11.9778C13.5 10.7778 14 9.37783 14 7.77783C14 3.87783 10.9 0.777832 7 0.777832C3.1 0.777832 0 3.87783 0 7.77783C0 11.6778 3.1 14.7778 7 14.7778C8.6 14.7778 10 14.2778 11.2 13.3778L14.3 16.4778C14.5 16.6778 14.7 16.7778 15 16.7778C15.6 16.7778 16 16.3778 16 15.7778C16 15.5778 15.9 15.2778 15.7 15.0778ZM2 7.77783C2 4.97783 4.2 2.77783 7 2.77783C9.8 2.77783 12 4.97783 12 7.77783C12 10.5778 9.8 12.7778 7 12.7778C4.2 12.7778 2 10.5778 2 7.77783Z" fill="black"/>
</g>
<defs>
<clipPath id="clip0_56101_475">
<rect width="16" height="16" fill="white" transform="translate(0 0.777832)"/>
</clipPath>
</defs>
</svg>
