<svg width="39" height="10" viewBox="0 0 39 10" fill="none" xmlns="http://www.w3.org/2000/svg">
<path d="M2.56324 4.316V10H0.267235V0.0599995H2.08724L6.69324 5.912V0.0599995H8.98924V10H7.11324L2.56324 4.316ZM20.6763 7.984V10H13.6903V0.0599995H20.5503V2.076H15.9863V4.008H19.9063V5.87H15.9863V7.984H20.6763ZM28.1471 0.0739993H30.2611L31.2971 3.252L32.3331 0.0739993H34.4611L32.7671 4.694L33.7751 7.34L36.2671 0.0599995H38.7731L34.8951 10H32.9071L31.2971 6.108L29.7011 10H27.6991L23.8351 0.0599995H26.3271L28.8331 7.34L29.8131 4.694L28.1471 0.0739993Z" fill="black" fill-opacity="0.6"/>
</svg>
